<?xml version="1.0" standalone="no"?>
<!DOCTYPE svg PUBLIC "-//W3C//DTD SVG 20010904//EN"
 "http://www.w3.org/TR/2001/REC-SVG-20010904/DTD/svg10.dtd">
<svg version="1.0" xmlns="http://www.w3.org/2000/svg"
 width="577.000000pt" height="90.000000pt" viewBox="0 0 577.000000 90.000000"
 preserveAspectRatio="xMidYMid meet">

<g transform="translate(0.000000,90.000000) scale(0.100000,-0.100000)"
fill="#000000" stroke="none">
<path d="M3368 733 c-52 -60 -49 -167 7 -213 15 -12 14 -9 -4 25 -27 51 -27
118 -1 168 22 41 21 46 -2 20z"/>
<path d="M3730 734 c0 -8 5 -12 10 -9 6 4 8 11 5 16 -9 14 -15 11 -15 -7z"/>
<path d="M3786 742 c-12 -3 -15 -6 -7 -11 8 -6 7 -27 -5 -85 -9 -43 -14 -80
-11 -82 2 -2 12 -1 21 2 12 4 14 9 7 14 -8 4 -7 29 5 84 9 43 14 79 12 80 -1
1 -12 0 -22 -2z"/>
<path d="M3870 734 c0 -8 5 -12 10 -9 6 4 8 11 5 16 -9 14 -15 11 -15 -7z"/>
<path d="M4236 741 c-4 -7 -5 -15 -2 -18 9 -9 19 4 14 18 -4 11 -6 11 -12 0z"/>
<path d="M5160 743 c0 -4 7 -17 15 -27 20 -26 20 -132 0 -170 -22 -41 -11 -44
13 -4 33 53 37 99 14 151 -18 40 -42 70 -42 50z"/>
<path d="M2721 726 c-53 -29 -68 -107 -28 -144 27 -25 74 -29 103 -7 17 13 16
14 -15 5 -64 -18 -107 36 -81 101 20 47 87 62 113 25 5 -7 7 -3 5 9 -4 25 -61
32 -97 11z"/>
<path d="M3429 731 c11 -7 12 -20 3 -71 -17 -93 11 -123 78 -85 24 13 23 13
-17 8 -54 -7 -58 2 -39 90 l14 67 -27 0 c-19 0 -22 -3 -12 -9z"/>
<path d="M3547 732 c8 -5 9 -21 2 -57 -22 -112 -22 -115 9 -115 20 0 23 3 13
9 -12 8 -13 21 -4 82 7 39 18 76 25 80 8 6 1 9 -22 9 -19 0 -30 -4 -23 -8z"/>
<path d="M5001 728 c18 -15 49 -63 49 -76 0 -5 -17 -27 -38 -50 l-39 -42 31 0
c20 0 26 3 18 8 -10 7 -8 15 8 35 27 34 34 34 49 0 10 -21 9 -28 -1 -34 -8 -6
1 -9 25 -9 37 0 37 0 18 19 -11 11 -27 33 -35 49 -14 28 -14 30 24 70 36 40
37 42 14 42 -15 0 -22 -5 -18 -13 2 -7 -6 -23 -19 -35 l-24 -22 -12 26 c-10
22 -9 29 1 35 8 6 -2 9 -26 9 -33 0 -37 -2 -25 -12z"/>
<path d="M3264 695 c-3 -14 -11 -25 -18 -25 -8 0 -8 -3 1 -8 9 -5 9 -19 3 -47
-15 -62 -11 -68 26 -40 16 12 16 14 2 9 -16 -5 -17 -1 -12 27 4 19 14 40 22
47 11 8 12 12 3 12 -9 0 -11 8 -7 25 4 14 2 25 -4 25 -5 0 -12 -11 -16 -25z"/>
<path d="M3637 713 c-4 -3 -7 -14 -7 -24 0 -9 -6 -20 -12 -22 -9 -4 -9 -6 -2
-6 9 -1 9 -12 3 -38 -15 -67 -10 -76 27 -48 18 15 18 15 0 8 -17 -6 -18 -3
-13 27 4 18 7 36 7 41 0 5 8 9 18 9 13 0 14 2 3 9 -8 5 -12 18 -8 30 5 21 -3
28 -16 14z"/>
<path d="M4147 713 c-4 -3 -7 -14 -7 -24 0 -9 -6 -20 -12 -22 -9 -4 -9 -6 -2
-6 9 -1 9 -12 3 -38 -15 -67 -10 -76 27 -48 18 15 18 15 0 8 -17 -6 -18 -3
-13 27 4 18 7 36 7 41 0 5 8 9 18 9 13 0 14 2 3 9 -8 5 -12 18 -8 30 5 21 -3
28 -16 14z"/>
<path d="M2862 667 c-27 -28 -31 -94 -6 -104 26 -10 61 14 74 51 21 66 -23
101 -68 53z m54 -11 c7 -30 -16 -81 -36 -81 -19 0 -26 56 -10 85 15 27 38 25
46 -4z"/>
<path d="M3716 678 c-3 -7 -7 -30 -11 -51 -3 -21 -9 -45 -12 -53 -7 -18 8 -18
33 1 15 12 15 14 2 9 -15 -5 -16 -1 -3 45 8 30 9 53 4 57 -5 3 -11 -1 -13 -8z"/>
<path d="M3865 682 c-6 -4 -11 -16 -12 -27 -2 -11 -6 -37 -9 -59 -6 -31 -4
-38 7 -34 8 3 13 12 11 21 -2 9 2 35 8 58 12 43 11 52 -5 41z"/>
<path d="M3941 687 c2 -1 12 -9 22 -16 14 -12 17 -11 17 3 0 10 -8 16 -22 16
-12 0 -19 -1 -17 -3z"/>
<path d="M4215 675 c-11 -9 -14 -14 -7 -10 15 8 15 -8 1 -58 -12 -44 -9 -50
15 -41 11 4 14 9 7 13 -7 5 -7 18 0 45 6 20 9 44 7 52 -3 13 -6 13 -23 -1z"/>
<path d="M4298 680 c-23 -14 -40 -77 -27 -101 25 -48 92 6 87 70 -3 39 -27 51
-60 31z m40 -17 c20 -43 -25 -120 -48 -83 -17 26 6 100 31 100 5 0 12 -8 17
-17z"/>
<path d="M4670 681 c0 -4 26 -19 57 -32 l58 -25 -58 -23 c-31 -13 -57 -27 -57
-32 0 -4 32 6 70 23 39 17 69 32 67 34 -10 11 -137 62 -137 55z"/>
<path d="M2964 668 c-5 -7 -3 -8 6 -3 10 6 12 2 7 -16 -17 -77 -18 -89 -6 -89
7 0 23 10 36 22 l23 21 0 -22 c0 -36 22 -19 25 19 1 19 5 45 9 58 4 12 3 22
-2 22 -6 0 -12 -11 -16 -23 -7 -28 -43 -77 -57 -77 -6 0 -8 8 -5 18 16 60 17
82 2 82 -8 0 -18 -5 -22 -12z"/>
<path d="M3106 671 c-4 -5 -2 -11 4 -13 6 -2 6 -16 -1 -41 -15 -54 -5 -69 15
-22 9 21 24 48 34 60 l17 20 -24 -20 -24 -20 7 23 c5 16 3 22 -8 22 -8 0 -17
-4 -20 -9z"/>
<path d="M3182 663 c0 -10 -3 -38 -7 -62 -6 -33 -5 -43 5 -39 7 2 14 21 16 42
2 21 6 46 9 57 4 13 2 19 -9 19 -8 0 -14 -8 -14 -17z"/>
<path d="M3911 661 c-11 -20 -3 -32 33 -45 13 -4 17 -13 13 -29 -6 -21 -6 -21
8 -3 21 28 19 36 -16 49 -21 8 -29 17 -25 29 6 23 -1 23 -13 -1z"/>
<path d="M4027 668 c-27 -21 -51 -108 -29 -108 5 0 17 7 28 15 18 15 18 15 0
8 -17 -6 -18 -3 -13 27 8 39 24 60 44 60 11 0 13 -6 8 -22 -16 -50 -18 -91 -5
-86 8 2 14 15 15 29 1 13 5 39 9 57 7 29 6 32 -16 32 -13 0 -32 -6 -41 -12z"/>
<path d="M4400 658 c0 -13 -3 -41 -7 -62 -4 -28 -3 -37 5 -32 7 4 12 16 12 26
0 11 14 34 30 52 l31 33 -7 -59 c-5 -47 -4 -58 7 -54 8 3 13 12 11 21 -1 8 2
34 7 56 7 35 6 41 -7 41 -9 0 -27 -10 -40 -22 l-25 -23 6 23 c3 15 1 22 -9 22
-8 0 -14 -10 -14 -22z"/>
<path d="M3901 583 c-1 -18 4 -23 22 -22 15 1 17 3 5 6 -9 2 -19 12 -21 21 -3
12 -5 10 -6 -5z"/>
<path d="M406 551 c-4 -7 -5 -15 -2 -18 9 -9 19 4 14 18 -4 11 -6 11 -12 0z"/>
<path d="M1476 552 c-13 -3 -15 -6 -6 -12 9 -6 9 -24 -4 -85 -17 -80 -15 -109
4 -61 5 15 10 31 10 35 0 11 49 55 55 50 2 -3 0 -21 -5 -40 -14 -46 -13 -72 3
-66 6 2 11 12 9 21 -2 9 2 33 7 53 14 50 1 60 -36 29 l-31 -26 9 42 c12 52 9
65 -15 60z"/>
<path d="M1901 551 c-7 -5 -9 -10 -4 -12 7 -3 4 -36 -6 -86 -9 -46 -13 -83 -9
-83 4 0 11 12 14 28 4 15 9 31 12 36 3 5 6 23 7 40 1 17 6 43 10 59 7 28 0 33
-24 18z"/>
<path d="M2146 552 c-12 -3 -15 -6 -7 -11 8 -6 7 -27 -5 -85 -9 -43 -14 -80
-11 -82 2 -2 12 -1 21 2 12 4 14 9 7 14 -8 4 -7 29 5 84 9 43 14 79 12 80 -1
1 -12 0 -22 -2z"/>
<path d="M2276 552 c-14 -3 -15 -6 -6 -12 17 -11 3 -50 -19 -50 -27 0 -59 -41
-63 -79 -4 -39 9 -48 37 -26 19 16 19 16 -4 10 -22 -7 -23 -5 -16 27 8 38 22
58 41 58 20 0 24 -14 11 -41 -15 -29 -10 -72 6 -66 7 3 11 9 10 15 -2 6 4 45
13 87 9 42 14 78 12 79 -1 1 -12 0 -22 -2z"/>
<path d="M221 533 c0 -11 3 -13 6 -5 5 12 53 17 53 5 0 -39 -26 -141 -38 -150
-13 -11 -10 -13 24 -12 21 0 33 3 27 6 -16 6 -16 19 -2 100 10 56 14 63 34 63
14 0 25 -7 28 -17 4 -14 5 -12 6 5 1 21 -3 22 -69 22 -60 0 -70 -2 -69 -17z"/>
<path d="M1307 528 c-5 -21 -5 -21 7 -5 16 20 61 24 53 4 -3 -8 -8 -40 -12
-71 -4 -31 -14 -64 -22 -72 -13 -12 -10 -14 24 -14 26 0 34 3 24 9 -13 9 -11
71 6 139 6 27 49 31 56 5 4 -14 5 -12 6 5 1 21 -3 22 -68 22 -63 0 -69 -2 -74
-22z"/>
<path d="M385 485 c-11 -9 -14 -14 -7 -10 15 8 15 -8 1 -58 -12 -44 -9 -50 15
-41 11 4 14 9 7 13 -7 5 -7 18 0 45 6 20 9 44 7 52 -3 13 -6 13 -23 -1z"/>
<path d="M660 482 c-32 -26 -35 -106 -5 -110 11 -1 29 4 40 13 19 16 19 16 -3
5 -12 -6 -27 -8 -32 -5 -14 9 -12 45 3 45 9 0 9 2 -1 9 -10 6 -9 13 7 32 22
27 41 18 23 -11 -14 -23 0 -27 18 -5 15 18 6 45 -14 45 -7 0 -24 -8 -36 -18z"/>
<path d="M853 490 c37 -23 11 -121 -28 -106 -18 7 -18 43 1 91 7 18 6 18 -9 6
-22 -18 -33 -77 -17 -96 33 -40 93 12 88 74 -2 30 -7 36 -28 39 -22 2 -23 1
-7 -8z"/>
<path d="M1068 490 c-21 -13 -41 -74 -33 -100 8 -24 34 -26 61 -4 18 14 18 15
-4 4 -12 -6 -27 -8 -32 -5 -13 8 -13 45 -1 45 5 0 7 8 4 18 -5 19 23 50 34 38
4 -4 2 -16 -5 -26 -13 -22 -3 -27 16 -8 32 32 1 62 -40 38z"/>
<path d="M1700 473 c-27 -34 -25 -96 4 -101 10 -2 23 1 28 6 7 7 4 10 -8 9
-13 -1 -20 6 -22 21 -2 13 2 22 10 22 10 0 10 2 -1 9 -10 7 -11 13 -2 30 7 11
16 21 21 21 16 0 22 -21 9 -36 -10 -12 -9 -13 4 -8 18 6 30 32 21 45 -11 18
-43 9 -64 -18z"/>
<path d="M1797 482 c-25 -27 -21 -42 13 -53 17 -6 30 -14 30 -19 0 -17 -30
-31 -52 -25 -19 6 -21 5 -11 -6 21 -21 67 0 71 33 3 22 -2 29 -23 34 -36 9
-29 40 8 37 15 -1 25 2 22 8 -10 15 -41 10 -58 -9z"/>
<path d="M1954 484 c-10 -8 -13 -12 -5 -8 14 7 14 -8 -5 -80 -7 -29 3 -33 32
-11 19 15 19 15 0 8 -16 -5 -18 -3 -13 11 9 24 21 96 15 96 -2 0 -13 -7 -24
-16z"/>
<path d="M2063 490 c37 -23 11 -121 -28 -106 -18 7 -18 43 1 91 7 18 6 18 -9
6 -22 -18 -33 -77 -17 -96 33 -40 93 12 88 74 -2 30 -7 36 -28 39 -22 2 -23 1
-7 -8z"/>
<path d="M444 478 c-5 -7 -3 -8 6 -3 13 8 12 -8 -6 -79 -3 -15 -2 -26 4 -26 5
0 13 15 16 33 3 19 18 45 33 58 l26 24 -7 -42 c-3 -23 -9 -48 -12 -57 -3 -9
-1 -16 5 -16 6 0 11 6 11 13 0 7 8 29 19 50 10 20 15 34 10 31 -5 -3 -9 2 -9
10 0 22 -20 20 -46 -5 l-23 -21 6 21 c6 23 -20 31 -33 9z"/>
<path d="M574 478 c-5 -7 -3 -8 6 -3 10 6 11 2 6 -20 -18 -71 -19 -88 -6 -83
7 2 14 15 15 29 1 13 5 39 9 57 6 25 4 32 -8 32 -8 0 -18 -5 -22 -12z"/>
<path d="M917 483 c-4 -3 -7 -11 -7 -17 0 -6 5 -5 12 2 7 7 19 12 27 12 11 0
11 -3 -3 -19 -24 -26 -25 -71 -3 -85 15 -9 23 -6 48 22 32 36 41 92 14 92 -8
0 -15 -4 -15 -10 0 -5 5 -10 11 -10 16 0 2 -51 -21 -74 -10 -10 -23 -15 -29
-12 -16 10 -14 49 4 72 8 10 15 22 15 27 0 9 -44 9 -53 0z"/>
<path d="M1144 478 c-5 -7 -3 -8 6 -3 10 6 11 -1 6 -31 -4 -21 -9 -47 -12 -56
-3 -10 -2 -18 3 -18 11 0 39 81 35 103 -4 19 -27 23 -38 5z"/>
<path d="M1197 483 c-12 -12 -7 -22 8 -17 8 4 15 10 15 15 0 11 -14 12 -23 2z"/>
<path d="M1595 480 c-3 -5 -2 -10 3 -10 6 0 7 -14 1 -37 -11 -49 -11 -66 0
-59 9 6 22 54 25 94 2 22 -18 31 -29 12z"/>
<path d="M1641 476 c-10 -12 -8 -13 8 -9 12 3 21 9 21 14 0 14 -16 11 -29 -5z"/>
<path d="M2405 470 c-4 -6 20 -10 65 -10 45 0 69 4 65 10 -3 6 -33 10 -65 10
-32 0 -62 -4 -65 -10z"/>
<path d="M3318 443 c364 -2 960 -2 1325 0 364 1 66 2 -663 2 -729 0 -1027 -1
-662 -2z"/>
<path d="M2405 410 c3 -5 33 -10 65 -10 32 0 62 5 65 10 4 6 -20 10 -65 10
-45 0 -69 -4 -65 -10z"/>
<path d="M3661 288 l-40 -63 34 -3 c26 -2 35 -8 35 -22 0 -10 -8 -21 -17 -23
-10 -3 2 -5 27 -5 25 0 39 2 33 5 -7 2 -13 13 -13 23 0 10 6 21 13 24 10 5 10
7 0 12 -8 3 -13 25 -13 54 0 27 -4 51 -10 55 -5 3 -27 -23 -49 -57z m29 -13
c0 -31 -3 -35 -25 -35 l-25 0 22 35 c13 19 24 35 26 35 1 0 2 -16 2 -35z"/>
<path d="M3872 338 c-7 -7 -12 -19 -12 -27 1 -13 2 -13 11 2 14 23 46 22 59
-3 13 -25 1 -51 -48 -102 l-36 -38 62 0 c35 0 62 4 62 10 0 6 -18 10 -40 10
-22 0 -40 3 -40 6 0 4 16 24 35 45 19 22 35 48 35 58 0 41 -59 68 -88 39z"/>
<path d="M4049 334 c-19 -22 -69 -101 -69 -109 0 -3 16 -5 35 -5 28 0 35 -4
35 -19 0 -11 -8 -22 -17 -24 -10 -3 2 -5 27 -5 25 0 37 2 28 5 -22 5 -24 43
-3 43 8 0 15 5 15 10 0 6 -7 10 -15 10 -10 0 -15 15 -17 56 -3 53 -4 55 -19
38z m1 -54 c0 -36 -2 -40 -26 -40 l-25 0 22 40 c13 22 24 40 26 40 2 0 3 -18
3 -40z"/>
<path d="M4210 323 c1 -24 2 -25 11 -10 10 16 79 26 79 10 0 -4 -18 -37 -40
-74 -44 -74 -46 -79 -27 -79 10 0 97 157 97 175 0 3 -27 5 -60 5 -59 0 -60 -1
-60 -27z"/>
<path d="M3800 264 c0 -11 -6 -14 -22 -9 -21 5 -21 5 -6 -8 15 -12 15 -14 0
-25 -15 -11 -14 -12 6 -7 16 5 22 2 22 -9 0 -9 5 -16 11 -16 6 0 8 8 4 19 -4
14 0 21 12 24 17 4 17 5 0 6 -14 1 -17 6 -12 21 4 11 2 20 -4 20 -6 0 -11 -7
-11 -16z"/>
<path d="M4154 265 c-5 -11 -10 -13 -19 -5 -9 8 -15 8 -20 0 -3 -5 1 -13 10
-16 14 -6 14 -8 -2 -21 -17 -13 -16 -14 5 -8 16 5 22 2 22 -9 0 -9 5 -16 11
-16 6 0 9 9 6 19 -3 13 1 21 12 24 15 4 15 5 -1 6 -11 1 -15 7 -11 21 6 23 -5
27 -13 5z"/>
</g>
</svg>
